<svg width="24" height="17" viewBox="0 0 24 17" fill="none" xmlns="http://www.w3.org/2000/svg">
<path d="M21.0376 0H3.53352C1.89083 0 0.571289 1.31954 0.571289 2.96223V13.1954C0.571289 14.8381 1.89083 16.1576 3.53352 16.1576H21.0376C22.6803 16.1576 23.9999 14.8381 23.9999 13.1954V2.96223C23.9999 1.31954 22.6803 0 21.0376 0ZM21.0376 14.5419H3.53352C2.7795 14.5419 2.18705 13.9494 2.18705 13.1954V7.54023H22.3841V13.1954C22.3841 13.9494 21.7917 14.5419 21.0376 14.5419ZM3.53352 1.61576H21.0376C21.7917 1.61576 22.3841 2.20821 22.3841 2.96223V4.03941H2.18705V2.96223C2.18705 2.20821 2.7795 1.61576 3.53352 1.61576Z" fill="#240025"/>
</svg>
