<svg width="148" height="44" viewBox="0 0 148 44" fill="none" xmlns="http://www.w3.org/2000/svg">
<path d="M14.0513 0C17.0198 0 17.9764 2.15199 18.768 4.30399C19.0978 5.19789 26.8491 26.5192 27.08 27.1482C27.146 27.3138 27.113 27.6117 26.8161 27.7111C26.5193 27.8104 22.5282 29.3996 22.2973 29.4658C22.0664 29.532 21.8355 29.4327 21.7366 29.2009C21.6376 28.9692 19.9884 24.3341 19.7905 23.8375C19.2298 23.8375 8.87275 23.8375 8.31201 23.8375C8.11411 24.3672 6.43192 29.0023 6.36595 29.2009C6.29998 29.3996 6.03611 29.5651 5.80522 29.4658C5.57433 29.3664 1.51727 27.8104 1.28638 27.7111C1.05549 27.6117 0.956542 27.3469 1.02251 27.1482C1.31937 26.3537 8.93871 5.39654 9.33452 4.30399C10.0932 2.1851 11.0827 0 14.0513 0ZM0.428795 38.1068C0.197906 38.1068 0 38.3055 0 38.5704V43.5365C0 43.8014 0.197906 44 0.428795 44H27.6737C27.9046 44 28.1025 43.8014 28.1025 43.5365V38.5704C28.1025 38.3055 27.9046 38.1068 27.6737 38.1068H0.428795ZM14.0513 6.9526L10.1591 18.6396H17.9764L14.0842 6.9526H14.0513ZM115.412 24.1023C115.412 25.4266 114.686 26.2874 113.334 26.2874C112.806 26.2874 112.377 26.2874 111.684 26.0888V22.0828C111.981 22.0166 112.641 21.9503 113.334 21.9503C114.719 22.0497 115.412 22.6787 115.412 24.1023ZM118.182 23.9368C118.182 21.4868 116.764 19.7983 113.729 19.7983C113.004 19.7983 112.476 19.8646 111.684 20.0632V16.5207C112.179 16.4545 113.037 16.3883 113.96 16.3883C114.851 16.3883 115.972 16.4545 116.962 16.5538L117.028 14.5011C115.906 14.2363 114.29 14.1038 113.037 14.1038C111.783 14.1038 109.87 14.4018 108.947 14.6667V27.7111C110.365 28.2408 111.783 28.4725 113.202 28.4725C116.467 28.4725 118.182 26.7178 118.182 23.9368ZM86.8803 23.2084C86.8803 25.0293 86.1547 26.2212 84.9672 26.2212C84.4725 26.2212 84.2086 26.1881 83.6479 26.0226V20.5598C84.2746 20.2619 84.6044 20.2619 85.0992 20.2619C86.2866 20.2287 86.8803 21.222 86.8803 23.2084ZM77.8097 23.2746C77.8097 21.2882 78.4034 20.2287 79.5908 20.2287C80.0856 20.2287 80.4154 20.2287 81.0421 20.5267V25.9895C80.4814 26.1881 80.2175 26.1881 79.7228 26.1881C78.3704 26.2212 77.8097 25.0956 77.8097 23.2746ZM83.6479 31.4522V27.8766C83.9777 28.0752 84.6374 28.3732 85.7259 28.3732C87.9358 28.3732 89.552 26.5523 89.552 23.1753C89.552 19.5666 87.9358 18.0105 85.2971 18.0105C84.6374 18.0105 84.1756 18.0768 83.6479 18.3416V14.1369H81.0751V18.3747C80.5474 18.1099 80.0856 18.0436 79.4259 18.0436C76.7872 18.0436 75.1709 19.6659 75.1709 23.2415C75.1709 26.5854 76.6222 28.3732 78.9971 28.3732C80.1186 28.3732 80.7783 28.0752 81.1081 27.8766V31.4522H83.6479ZM64.0223 28.2077V18.6727C62.604 18.2423 61.5155 18.0767 60.0642 18.0767C58.6129 18.0767 57.5574 18.2754 56.1391 18.6727V23.5726C56.1391 24.8969 56.1061 25.2942 55.9742 25.7246C55.8422 26.0888 55.6443 26.5523 55.1166 26.9165L55.8092 28.4394C57.8872 27.8435 58.6789 26.9496 58.6789 24.0361V20.4274C59.3715 20.3281 59.5035 20.295 60.0642 20.295C60.6249 20.295 60.7239 20.3281 61.4165 20.4274V28.2077H64.0223ZM95.951 26.1219C95.3902 26.3205 94.9944 26.3537 94.5656 26.3537C93.6421 26.3537 93.1143 25.9895 93.1143 25.0293C93.1143 24.0361 93.774 23.705 95.0604 23.705C95.3573 23.705 95.6871 23.7382 95.819 23.8044V24.5327C95.819 25.2942 95.852 25.7908 95.951 26.1219ZM99.2494 27.2807C98.5567 26.2212 98.3918 25.6253 98.3918 24.301V21.6193C98.3918 20.1956 98.2269 19.6659 97.8311 19.1031C97.3033 18.3747 96.4457 18.0436 94.7965 18.0436C93.6421 18.0436 92.5206 18.1761 91.4651 18.4409L91.8609 20.3612C92.5866 20.2619 93.3452 20.1625 93.906 20.1625C95.6211 20.1625 95.819 20.4274 95.819 21.7186V22.2152C95.4232 22.1159 94.9944 22.0497 94.4997 22.0497C91.8939 22.0497 90.5416 23.3078 90.5416 25.4266C90.5416 27.38 91.9929 28.4725 93.774 28.4725C94.4337 28.4725 95.1264 28.3401 95.6871 28.1084C96.0169 27.9759 96.1489 27.8766 96.5777 27.5786C96.8415 27.9759 97.3693 28.3401 97.5672 28.4063L99.2494 27.2807ZM124.548 26.1219C123.988 26.3205 123.592 26.3537 123.163 26.3537C122.239 26.3537 121.712 25.9895 121.712 25.0293C121.712 24.0361 122.371 23.705 123.658 23.705C123.988 23.705 124.284 23.7382 124.416 23.8044V24.5327C124.416 25.2942 124.482 25.7908 124.548 26.1219ZM127.847 27.2807C127.154 26.2212 126.989 25.6253 126.989 24.301V21.6193C126.989 20.1956 126.824 19.6659 126.461 19.1031C125.934 18.3747 125.043 18.0436 123.427 18.0436C122.272 18.0436 121.151 18.1761 120.095 18.4409L120.491 20.3612C121.217 20.2619 121.975 20.1625 122.536 20.1625C124.251 20.1625 124.449 20.4274 124.449 21.7186V22.2152C124.086 22.1159 123.625 22.0497 123.13 22.0497C120.524 22.0497 119.172 23.3078 119.172 25.4266C119.172 27.38 120.623 28.4725 122.404 28.4725C123.064 28.4725 123.757 28.3401 124.317 28.1084C124.647 27.9759 124.779 27.8766 125.208 27.5786C125.472 27.9759 126 28.3401 126.197 28.4063L127.847 27.2807ZM71.3778 24.7976C71.3778 25.7577 71.0479 26.453 69.7945 26.453C69.3657 26.453 69.2008 26.453 68.6731 26.2874V23.4402C69.3657 23.3078 69.3987 23.2746 69.7945 23.2746C70.982 23.2746 71.3778 23.8706 71.3778 24.7976ZM66.0673 18.2092V27.678C67.2877 28.2077 68.6401 28.4394 69.8605 28.4394C72.6312 28.4394 74.0825 27.0158 74.0825 24.6652C74.0825 22.5463 72.7631 21.222 70.3223 21.222C69.6956 21.222 69.3327 21.2882 68.6731 21.4537V18.2092H66.0673ZM137.346 28.2077V18.3085H134.74V22.0497H131.805V18.3085H129.199V28.2077H131.805V24.1686H134.74V28.2077H137.346ZM148 28.2077C148 28.2077 146.582 25.1618 146.252 24.4996C145.856 23.7382 145.493 23.1753 144.702 22.9767V22.9436C145.229 22.8442 145.658 22.5132 146.12 21.5199C146.549 20.5598 146.681 20.3281 146.945 20.1294C147.208 19.8977 147.538 19.997 147.538 19.997L147.67 18.2092C147.307 18.143 146.879 18.143 146.45 18.1761C145.757 18.2092 145.394 18.4078 145.031 18.772C144.768 19.0369 144.57 19.4342 144.339 19.8977C144.108 20.3943 143.91 20.7916 143.646 21.3213C143.382 21.851 143.283 22.0828 142.591 22.0828H142.162V18.3085H139.556V28.2077H142.162V24.1686H142.525C143.25 24.1686 143.382 24.3672 143.778 25.1287C144.24 26.0557 145.097 28.2077 145.097 28.2077H148ZM51.3234 28.2077H54.3249L49.8061 14.3687C49.3443 14.2032 48.7506 14.1038 48.1239 14.1038C47.4312 14.1038 47.2004 14.2032 46.6726 14.3687L41.8899 28.2077H44.7595C44.7595 28.2077 45.1553 26.9827 45.6171 25.4929H50.5647C50.9606 27.0158 51.3234 28.2077 51.3234 28.2077ZM46.2768 23.1753C46.2768 23.1753 47.1014 20.3943 47.2333 19.9639C47.5632 18.8382 48.058 17.0504 48.058 17.0504H48.1239C48.1239 17.0504 48.5857 18.9044 48.8826 19.9308C49.0145 20.3281 49.8061 23.1422 49.8061 23.1422H46.2768V23.1753ZM103.669 21.5862C102.746 21.5862 102.02 22.3476 102.02 23.2415C102.02 24.1686 102.746 24.8969 103.669 24.8969C104.593 24.8969 105.318 24.1686 105.318 23.2415C105.318 22.3476 104.56 21.5862 103.669 21.5862Z" fill="#EE3524"/>
</svg>
