<svg width="19" height="16" viewBox="0 0 19 16" fill="none" xmlns="http://www.w3.org/2000/svg">
<path d="M9.1307 7.25759C8.75744 7.47144 8.2831 7.34313 8.06925 6.96987C7.85541 6.60051 7.97983 6.12227 8.35308 5.90843L14.6557 2.27307H11.343C10.9153 2.26918 10.5693 1.92314 10.5693 1.49545C10.5693 1.06388 10.9153 0.717838 11.3469 0.717838H17.5173C17.7972 0.706174 18.0772 0.846145 18.2288 1.10665C18.3766 1.36715 18.361 1.67819 18.2094 1.91537L15.1222 7.26148C14.9084 7.63085 14.434 7.75915 14.0608 7.54531C13.6914 7.33147 13.5631 6.85712 13.777 6.48386L15.4333 3.61835L9.1307 7.25759Z" fill="#240025"/>
<path d="M7.17512 15.7181C5.5188 13.9957 4.09187 12.1138 2.90212 10.0609C1.7007 7.98859 0.740348 5.74128 0.0327171 3.319C-0.0722611 2.96908 0.0832621 2.6036 0.386532 2.42863L4.4107 0.10356C4.78395 -0.110284 5.2583 0.0180226 5.47214 0.38739L7.08181 3.17514C7.29565 3.54451 7.16735 4.02275 6.79798 4.23659L5.35161 5.07253C5.65877 6.13786 6.07091 7.09822 6.57636 7.96137C7.08181 8.82064 7.68446 9.58659 8.38432 10.2592L9.79958 9.44273C10.1728 9.225 10.6472 9.35331 10.861 9.72656L12.4707 12.5104C12.6845 12.8837 12.5601 13.358 12.1869 13.5719L8.16269 15.8969C7.82832 16.0875 7.4123 16.0058 7.17512 15.7181Z" fill="#240025"/>
</svg>
