<svg width="16" height="20" viewBox="0 0 16 20" fill="none" xmlns="http://www.w3.org/2000/svg">
<path d="M15.4533 7.16328C15.1312 5.08176 14.5117 3.07458 13.57 1.24086C13.347 0.770039 13.0497 0.323999 12.9505 0.224879C12.678 -0.0477015 12.0832 -0.0724815 11.7363 0.150538C11.4885 0.299219 11.2407 0.720479 11.2407 0.993059C11.2407 1.0674 11.4637 1.58778 11.7611 2.15772C13.0744 4.80918 13.5948 7.0146 13.5948 9.8643C13.5948 12.8131 13.0001 15.2416 11.6372 17.8682C11.2903 18.5125 11.2407 18.686 11.2903 18.909C11.3646 19.2807 11.6868 19.6524 12.0089 19.7515C12.1576 19.8011 12.3063 19.8011 12.3558 19.8011C12.4054 19.7763 12.5045 19.7763 12.5788 19.7763C12.8762 19.7763 13.2231 19.3055 13.7683 18.1408C14.6851 16.2328 15.2551 14.2751 15.5524 12.0945C15.6763 10.9051 15.6516 8.45184 15.4533 7.16328Z" fill="#240025"/>
<path d="M10.646 5.30482C10.299 4.26406 9.43175 2.45512 9.15917 2.20732C8.76269 1.83562 7.99451 1.90996 7.67237 2.33122C7.35023 2.80204 7.37501 2.9755 7.92017 4.11538C8.76269 5.80042 9.08483 6.96508 9.25829 8.82358C9.48131 11.0538 9.03527 13.3335 7.99451 15.4646C7.74671 15.9602 7.52369 16.4558 7.47413 16.5797C7.32545 17.0258 7.69715 17.6205 8.16797 17.7692C8.88659 17.9922 9.40697 17.447 10.1256 15.7372C11.5876 12.3671 11.7363 8.72446 10.646 5.30482Z" fill="#240025"/>
<path d="M4.64826 3.94189C4.32612 3.94189 4.227 3.99145 3.9792 4.21447C3.50838 4.66051 3.50838 4.88353 4.07832 6.02342C5.36688 8.62532 5.3421 11.1777 4.02876 13.8291C3.68184 14.5477 3.6075 14.7708 3.63228 14.969C3.70662 15.2911 3.95442 15.6133 4.25178 15.7372C4.37568 15.7867 4.62348 15.8363 4.74738 15.8115C5.2182 15.7372 5.44122 15.4894 5.91204 14.5477C6.72978 12.8875 7.02714 11.6733 7.02714 9.88909C7.02714 8.15449 6.72978 6.79159 5.9616 5.23045C5.49078 4.21447 5.19342 3.94189 4.64826 3.94189Z" fill="#240025"/>
<path d="M0.857699 5.80038C0.287759 5.8995 -0.108721 6.519 0.0399593 7.0146C0.0647393 7.1385 0.238199 7.43586 0.386879 7.70844C0.857699 8.47662 0.95682 8.8731 0.95682 9.8643C0.95682 10.8555 0.857699 11.252 0.386879 12.0202C0.0151793 12.6149 -0.0591607 12.8627 0.0399593 13.16C0.114299 13.4326 0.386879 13.7548 0.634679 13.8539C1.15506 14.0769 1.65066 13.8291 2.0967 13.1353C3.36048 11.1776 3.36048 8.55096 2.0967 6.59334C1.65066 5.92428 1.32852 5.72604 0.857699 5.80038Z" fill="#240025"/>
</svg>
